<?xml version="1.0" encoding="UTF-8"?>
<!DOCTYPE svg PUBLIC "-//W3C//DTD SVG 1.1//EN" "http://www.w3.org/Graphics/SVG/1.1/DTD/svg11.dtd">
<!-- Creator: CorelDRAW X8 -->
<svg xmlns="http://www.w3.org/2000/svg" xml:space="preserve" width="166.955mm" height="23.023mm" version="1.1" style="shape-rendering:geometricPrecision; text-rendering:geometricPrecision; image-rendering:optimizeQuality; fill-rule:evenodd; clip-rule:evenodd"
viewBox="0 0 15074 2079"
 xmlns:xlink="http://www.w3.org/1999/xlink">
 <defs>
  <style type="text/css">
   <![CDATA[
    .fil0 {fill:#4E1600}
    .fil1 {fill:#FEFEFE;fill-rule:nonzero}
   ]]>
  </style>
 </defs>
 <g id="Layer_x0020_1">
  <metadata id="CorelCorpID_0Corel-Layer"/>
  <g id="_2941915691968">
   <path class="fil0" d="M14118 724c31,-33 66,-64 104,-93 65,-49 138,-82 219,-94 86,-12 171,2 249,38 1,1 3,1 4,2 92,-36 193,-23 275,44 94,77 127,194 90,309l-1 4 -2 3c-9,26 -19,52 -30,78 -8,20 -15,40 -22,61l-1 3 -67 189c25,105 -9,211 -99,279 -45,33 -98,53 -154,56 -60,4 -118,-14 -168,-47 -3,-2 -6,-4 -9,-6 -38,22 -79,37 -123,47 -136,28 -262,-16 -351,-123 -27,-33 -50,-70 -66,-110 -16,-40 -26,-82 -29,-124l0 -3c-31,-7 -61,-18 -89,-33 -4,-2 -8,-4 -12,-6 -5,20 -8,41 -11,62 -8,49 -18,97 -34,143l-1 3 -1 3c-16,40 -37,77 -65,109 -39,45 -91,75 -148,91 -51,14 -105,15 -156,3 -47,-11 -90,-32 -127,-61 -36,-29 -65,-64 -87,-104 -26,-48 -38,-102 -36,-157l0 -6 1 -7c2,-12 3,-25 6,-37 1,-6 2,-12 3,-18 -13,-5 -26,-11 -38,-18 -4,-2 -8,-4 -12,-6 -5,20 -9,41 -12,62 -7,49 -17,97 -33,143l-1 3 -2 3c-15,40 -36,77 -64,109 -40,45 -91,75 -148,91 -51,14 -105,15 -156,3 -28,-7 -54,-16 -78,-29 -29,12 -59,19 -91,20 -60,4 -118,-14 -168,-47 -3,-2 -6,-4 -9,-6 -38,22 -79,37 -123,47 -87,18 -171,6 -243,-33 -10,18 -22,35 -36,51 -44,50 -103,81 -168,92 -57,9 -114,2 -167,-19 -77,-29 -145,-72 -203,-129 -18,-18 -35,-36 -52,-55 -17,44 -39,84 -75,116l-7 5 -6 5c-44,32 -95,51 -149,55 -59,4 -116,-10 -167,-41 -64,-38 -108,-98 -128,-170 -12,-42 -18,-86 -18,-131 0,-37 3,-74 9,-112 3,-22 7,-45 10,-68l0 -2 1 -2c12,-74 26,-147 40,-221 15,-73 32,-147 53,-219 20,-70 43,-140 70,-208 28,-71 62,-140 100,-207l2 -3 2 -3c12,-20 25,-39 38,-58 14,-19 28,-38 43,-56 62,-84 156,-127 261,-119 63,4 123,26 173,66 55,45 89,107 101,177 1,3 1,6 2,9 13,-23 28,-45 43,-66 27,-37 57,-70 90,-99 23,-21 48,-40 76,-56 42,-24 88,-37 137,-40 46,-2 92,6 135,24 44,18 82,47 112,84 30,36 49,79 59,125 10,49 6,100 -9,148 -10,31 -21,62 -34,92 -1,2 -2,3 -2,5 74,-5 146,10 214,41 2,1 3,1 4,2 69,-27 143,-26 210,4 40,-30 86,-50 135,-58 49,-8 100,-5 148,10 48,16 91,42 127,77 3,2 5,5 7,7 72,3 138,29 195,75 8,-15 17,-30 28,-44 14,-19 31,-37 49,-53l2 -2 3 -2c42,-36 92,-59 147,-68 50,-8 100,-5 148,10 48,16 91,42 128,77 2,2 4,5 6,7 87,4 167,40 229,107zm-4398 -142c48,-35 105,-56 166,-58 64,-3 127,14 179,52 19,14 37,29 52,47 32,-28 68,-49 108,-62 42,-15 86,-22 131,-21 44,0 87,9 127,26 45,18 85,46 117,83l4 5 5 6c29,41 45,89 49,140 3,28 2,57 0,86 -9,125 -32,247 -70,366 -37,115 -84,226 -142,331 -22,40 -47,78 -75,114 -31,39 -66,75 -105,106 -51,42 -109,74 -172,96 -61,21 -125,31 -190,29 -65,-2 -128,-17 -187,-43 -64,-28 -119,-71 -164,-125l-4 -4 -3 -5c-12,-17 -23,-34 -33,-52 -5,-10 -11,-20 -16,-30l-5 -7 -3 -8c-7,-17 -13,-34 -17,-51 -52,-1 -101,-18 -144,-47 -4,-2 -7,-4 -10,-6 -38,22 -79,37 -123,47 -67,14 -132,10 -192,-10 -16,32 -40,60 -69,83l-2 2 -1 1c-44,34 -97,53 -153,55 -58,1 -114,-17 -161,-49l-3 -2 -3 -2c-38,-28 -69,-63 -93,-104 -39,15 -81,24 -124,26 -60,1 -119,-10 -173,-36 -20,-10 -39,-21 -56,-34 -13,11 -27,22 -42,31 -50,32 -108,47 -167,44l-4 0 -5 -1c-63,-5 -124,-25 -175,-64 0,0 0,0 0,0 -25,20 -53,36 -86,47 -68,24 -140,30 -208,5 -13,-5 -25,-10 -36,-17 -25,20 -52,36 -82,48 -49,19 -100,26 -152,20 -49,-6 -95,-22 -136,-48 -45,-27 -81,-64 -108,-109l-2 -3c-43,-74 -67,-155 -74,-239 -1,0 -3,-1 -5,-1 -37,-6 -72,-18 -106,-36 -4,-2 -8,-4 -11,-6 -5,20 -9,41 -12,62 -7,49 -18,97 -34,143l-1 3 -1 3c-15,40 -37,77 -65,109 -39,45 -90,75 -148,91 -51,14 -104,15 -156,3 -43,-10 -83,-29 -119,-55 -21,18 -44,34 -71,47l-6 4 -7 2c-100,40 -206,26 -292,-38l-3 -3 -3 -2c-27,-22 -49,-47 -68,-74 -12,8 -25,17 -38,25 -69,42 -142,77 -219,102 -77,26 -156,43 -237,51 -49,5 -99,8 -148,8 -58,0 -115,-7 -171,-20l-2 -1 -3 -1c-49,-12 -96,-31 -140,-56 -47,-27 -89,-60 -126,-100 -58,-63 -87,-146 -74,-231l0 -6 2 -6c15,-74 58,-136 121,-176 6,-4 12,-7 18,-10 3,-26 7,-51 12,-76 8,-41 16,-82 24,-123 -4,-7 -8,-15 -11,-23l-4 -9 -4 -10c-15,-48 -18,-98 -7,-147 7,-27 16,-52 28,-77 20,-46 45,-88 76,-127 22,-28 45,-55 69,-82 5,-6 10,-12 15,-19l0 0 4 -7c21,-37 42,-75 65,-111 28,-46 61,-89 99,-128 16,-17 33,-34 51,-50 35,-32 76,-55 122,-69 74,-23 151,-19 219,19 8,4 15,8 22,13 18,-5 37,-9 55,-13 45,-12 91,-19 137,-21 52,-2 103,3 154,15 103,24 192,81 245,175 19,34 32,69 39,106 2,-2 5,-4 7,-5 60,-41 132,-54 202,-39 52,12 100,36 138,72 41,38 70,86 84,139 4,15 7,30 8,45 18,1 35,4 52,8 1,-12 2,-25 4,-37 8,-41 25,-79 50,-112 28,-38 66,-68 109,-87 49,-22 102,-32 155,-29 58,1 116,2 175,4 24,0 48,1 72,1 3,-3 5,-7 8,-10 14,-20 29,-40 46,-58 15,-16 29,-31 44,-47 26,-30 55,-57 87,-80l5 -4 6 -3c101,-63 220,-65 320,4 18,12 34,26 48,41 26,-8 54,-14 82,-15 68,-5 134,16 189,56 47,34 84,78 105,132 4,0 7,-1 11,-1 19,-1 38,0 57,2l5 0 6 1c50,9 96,32 132,68 43,43 66,100 66,159 1,13 1,26 -1,38 24,-8 48,-15 74,-20 36,-7 72,-9 107,-8 1,-1 2,-3 2,-5 13,-29 28,-59 43,-87 18,-33 39,-64 61,-94l2 -3c12,-16 25,-31 38,-45 14,-15 28,-30 43,-43l4 -4 4 -3c45,-38 100,-61 159,-65 60,-5 119,11 171,44l2 1 2 2c49,34 86,82 105,138 20,58 19,120 0,177 83,-10 165,4 240,39 2,1 3,1 4,2 71,-27 146,-26 214,5zm-6168 36c10,-9 20,-18 31,-26 50,-42 111,-66 177,-68 64,-3 127,14 179,52 19,14 37,29 52,47 32,-28 68,-49 108,-62 42,-15 86,-22 131,-21 44,0 87,9 127,26 45,18 85,46 117,83l5 5 4 6c30,41 45,89 49,140 3,28 2,57 0,86 -9,125 -32,247 -70,366 -36,115 -84,226 -141,331 -22,40 -48,78 -76,114 -31,39 -66,75 -104,106 -52,42 -110,74 -173,96 -61,21 -125,31 -190,29 -65,-2 -128,-17 -187,-43 -64,-28 -119,-71 -164,-125l-4 -4 -3 -5c-12,-17 -23,-34 -33,-52 -5,-10 -11,-20 -16,-30l-4 -7 -4 -8c-18,-42 -27,-85 -25,-129 -16,9 -33,17 -49,24 -42,18 -87,30 -132,36 -36,5 -71,6 -107,3 -1,3 -2,7 -3,10 -22,66 -43,132 -64,198 -9,31 -22,62 -37,91 -20,39 -45,74 -77,104 -36,33 -78,58 -124,73 -58,19 -118,19 -176,4l-8 -2 -9 -3c-52,-18 -100,-48 -137,-90 -34,-39 -58,-85 -69,-135 -10,-45 -11,-90 -2,-135 6,-34 16,-67 29,-99 3,-8 6,-15 9,-22 -7,1 -15,2 -23,3 -36,5 -72,6 -107,3 -1,3 -2,7 -3,10 -22,66 -43,132 -64,198 -9,31 -22,62 -37,91 -20,39 -45,74 -77,104 -36,33 -78,58 -125,73 -57,19 -117,19 -175,4l-8 -2 -9 -3c-53,-18 -100,-48 -137,-90 -34,-39 -58,-85 -69,-135 -10,-45 -11,-90 -3,-135 7,-34 17,-67 30,-99 7,-18 15,-36 22,-53 0,-1 0,-1 -1,-1 -38,22 -79,37 -123,47 -121,25 -235,-8 -321,-91 -11,21 -25,41 -42,59 -71,81 -175,108 -278,77 -98,-28 -171,-98 -201,-196 -4,-14 -9,-29 -12,-44 -10,70 -48,133 -109,175 -80,55 -177,65 -266,28 -54,-22 -98,-58 -130,-107 -22,-34 -37,-72 -45,-112 -12,-47 -14,-96 -8,-145 2,-19 4,-38 7,-57 -35,-39 -58,-88 -65,-144 -14,-106 30,-204 119,-262 9,-7 19,-13 29,-19 13,-53 29,-106 46,-158 25,-75 55,-147 89,-218 15,-31 30,-61 47,-91 15,-27 31,-55 47,-82l4 -7 5 -6c10,-15 21,-29 33,-43 15,-17 31,-32 49,-46l6 -4 6 -4c40,-27 85,-44 133,-48 47,-4 94,3 137,21 44,19 81,49 110,87 29,37 47,81 55,128l0 2c28,-43 59,-85 93,-125 24,-29 52,-57 81,-83 32,-30 70,-53 113,-65 30,-9 62,-13 93,-13l6 0 5 0c48,3 94,16 134,41 38,24 70,56 93,94 24,40 37,85 39,132 1,43 -8,87 -25,127l-1 2 -1 3c-23,48 -46,97 -69,145 17,-4 34,-8 52,-11 86,-12 171,2 249,38 2,1 3,1 4,2 64,-25 132,-26 195,-2 26,-26 57,-46 91,-60 46,-20 96,-27 145,-22 52,6 100,25 141,56 11,8 21,16 30,25 24,-9 50,-17 76,-23l5 -2 6 -1c55,-9 110,-7 164,9 39,12 75,30 108,54 32,-42 73,-76 123,-96 46,-20 96,-27 146,-22 51,6 99,25 140,56 11,8 21,16 30,25 24,-9 50,-17 76,-23l6 -2 5 -1c55,-9 111,-7 164,9 43,13 82,33 117,61z"/>
   <g>
    <path class="fil1" d="M596 801c52,-5 104,-11 155,-15 51,-5 103,-10 155,-15 9,-21 18,-43 26,-65 7,-23 16,-45 26,-68 27,-63 56,-124 88,-182 32,-58 70,-113 114,-165 18,-22 40,-44 64,-66 10,-10 22,-17 35,-21 12,-3 26,-5 39,-5 17,1 31,5 43,12 12,8 21,17 28,28 7,12 11,24 11,38 1,14 -2,28 -9,43 -28,60 -56,120 -84,179 -28,60 -56,120 -85,180 -8,20 -16,40 -24,61 -8,21 -18,41 -28,62 6,4 11,7 16,9 5,3 10,6 15,9 7,5 14,10 20,15 6,5 12,11 18,18 10,11 15,23 16,36 1,14 -1,27 -8,40 -14,24 -34,37 -62,37l-76 0c-4,2 -7,6 -9,9 -22,55 -42,110 -61,164 -19,54 -35,110 -47,168 -2,10 -3,19 -3,27 0,9 3,17 7,27 14,27 10,52 -11,74 -20,23 -46,30 -78,20 -37,-10 -60,-33 -70,-68 -4,-13 -8,-26 -9,-40 -2,-13 -4,-26 -5,-39 -1,-48 2,-95 11,-141 10,-46 19,-91 29,-137 1,-5 2,-9 2,-14 0,-4 0,-10 2,-18 -18,3 -36,6 -53,8 -16,2 -33,5 -50,8 -36,7 -73,14 -109,20 -37,7 -73,12 -110,18 -16,3 -27,12 -33,27 -10,35 -20,70 -31,105 -11,34 -22,69 -32,104 -3,10 -4,20 -4,29 0,10 0,20 1,30 5,31 -4,54 -27,70 -25,17 -52,20 -81,8 -17,-7 -31,-18 -40,-32 -9,-14 -15,-31 -19,-49 -6,-26 -8,-53 -5,-79 3,-27 7,-54 10,-80 2,-16 4,-33 7,-49 2,-16 4,-32 7,-48 -5,-2 -11,-4 -16,-6 -5,-2 -9,-4 -14,-5 -31,-12 -48,-33 -52,-62 -5,-34 7,-59 36,-75 8,-7 17,-12 26,-17 10,-5 20,-9 30,-14 10,-4 18,-10 24,-16 7,-7 11,-16 14,-29 16,-68 34,-136 56,-202 22,-66 49,-131 80,-194 13,-28 26,-54 41,-80 15,-27 30,-53 45,-79 7,-9 13,-18 20,-26 7,-7 15,-15 23,-21 14,-9 28,-14 43,-16 15,-1 29,1 42,6 13,6 23,14 32,26 9,11 14,25 17,42 3,29 1,57 -5,83 -13,63 -30,125 -50,185 -20,60 -40,120 -61,180 -3,5 -5,10 -7,16 -2,6 -4,12 -6,17zm1038 457c-7,7 -14,14 -19,21 -6,7 -13,14 -20,21 -23,24 -47,46 -72,65 -25,20 -55,33 -90,41 -65,13 -119,-5 -161,-56 -15,-19 -27,-38 -35,-59 -8,-20 -14,-42 -15,-66 -9,-183 60,-329 207,-438 41,-31 85,-50 131,-57 46,-6 93,1 140,23 15,6 29,14 41,24 13,10 26,19 40,28 8,-5 16,-11 24,-18 8,-6 16,-12 26,-16 38,-25 73,-24 105,1 31,26 40,58 28,98 -10,24 -19,48 -29,72 -9,24 -18,49 -26,74l-78 218c-7,23 -6,45 1,66 15,39 7,69 -22,91 -15,11 -30,17 -47,18 -17,0 -34,-5 -50,-16 -16,-10 -29,-22 -39,-37 -10,-14 -18,-31 -24,-49 -2,-7 -4,-15 -7,-23 -2,-7 -5,-16 -9,-26zm-89 -91c20,-18 41,-40 61,-66 21,-25 38,-50 50,-74 13,-25 20,-46 20,-64 1,-18 -9,-30 -29,-34 -24,-5 -46,-4 -65,3 -20,7 -39,18 -57,34 -33,30 -59,65 -77,107 -16,35 -26,66 -30,93 -5,27 -3,47 4,59 7,12 21,14 41,6 20,-8 48,-29 82,-64zm583 167c-22,70 -44,138 -65,204 -21,66 -43,133 -64,200 -6,21 -14,41 -24,61 -11,19 -23,36 -37,50 -15,13 -32,23 -52,30 -20,6 -42,6 -68,0 -24,-8 -42,-20 -55,-34 -12,-15 -21,-31 -25,-50 -4,-18 -4,-37 -1,-57 4,-20 10,-40 18,-59 52,-127 105,-265 160,-417 54,-151 107,-311 157,-479 4,-10 9,-19 14,-27 4,-8 10,-17 16,-26 12,-17 26,-28 43,-35 16,-7 32,-10 49,-8 16,2 32,8 46,19 14,10 25,25 32,44 5,15 8,30 9,46 1,15 3,31 5,46 1,9 0,23 -3,40 35,-29 70,-58 104,-85 35,-28 74,-46 118,-56 28,-5 53,-4 76,3 23,7 42,18 59,34 17,15 31,34 41,55 10,22 16,44 19,68 5,92 -12,172 -49,243 -37,70 -92,132 -165,185 -24,16 -48,30 -73,41 -25,11 -52,18 -81,22 -32,5 -62,3 -90,-3 -28,-7 -56,-19 -84,-35 -3,-3 -7,-6 -12,-8 -5,-2 -11,-6 -18,-12zm383 -445c-27,14 -54,33 -80,55 -27,22 -53,45 -78,70 -25,24 -48,49 -70,75 -22,26 -42,49 -59,71 36,4 70,1 103,-9 33,-10 63,-24 90,-41 28,-17 51,-36 71,-58 20,-22 34,-44 43,-65 9,-22 13,-41 10,-58 -3,-18 -13,-31 -30,-40zm415 445c-22,70 -43,138 -65,204 -21,66 -43,133 -64,200 -6,21 -14,41 -24,61 -10,19 -23,36 -37,50 -15,13 -32,23 -52,30 -19,6 -42,6 -68,0 -23,-8 -42,-20 -55,-34 -12,-15 -21,-31 -25,-50 -4,-18 -4,-37 -1,-57 4,-20 10,-40 18,-59 52,-127 106,-265 160,-417 54,-151 107,-311 157,-479 5,-10 9,-19 14,-27 4,-8 10,-17 16,-26 12,-17 26,-28 43,-35 16,-7 33,-10 49,-8 17,2 32,8 46,19 14,10 25,25 32,44 5,15 8,30 9,46 2,15 3,31 5,46 1,9 0,23 -3,40 35,-29 70,-58 104,-85 35,-28 74,-46 118,-56 28,-5 53,-4 76,3 23,7 43,18 59,34 17,15 31,34 41,55 10,22 16,44 19,68 5,92 -12,172 -49,243 -37,70 -92,132 -165,185 -24,16 -48,30 -73,41 -25,11 -52,18 -80,22 -32,5 -63,3 -91,-3 -28,-7 -56,-19 -84,-35 -3,-3 -7,-6 -12,-8 -4,-2 -10,-6 -18,-12zm383 -445c-27,14 -53,33 -80,55 -27,22 -53,45 -78,70 -25,24 -48,49 -70,75 -22,26 -41,49 -59,71 36,4 70,1 103,-9 33,-10 63,-24 91,-41 27,-17 51,-36 70,-58 20,-22 34,-44 43,-65 10,-22 13,-41 10,-58 -3,-18 -13,-31 -30,-40zm772 89c-14,15 -28,30 -42,46 -14,16 -28,32 -43,49 -19,21 -38,42 -57,65 -19,22 -38,44 -57,65 -13,13 -25,24 -38,35 -12,11 -25,21 -39,31 -38,25 -77,36 -116,31 -38,-4 -71,-24 -98,-57 -30,-42 -44,-89 -44,-140 1,-53 10,-105 25,-155 16,-49 39,-97 71,-142 17,-22 38,-43 62,-63 18,-15 39,-23 63,-24 23,-1 42,4 58,16 19,13 31,29 36,48 5,19 4,41 -3,65 -8,27 -15,55 -23,83 -8,27 -14,57 -20,88 -8,32 -10,52 -5,61 4,9 13,9 27,1 13,-8 30,-24 51,-46 21,-21 44,-47 68,-75 24,-28 49,-58 75,-90 26,-31 52,-61 76,-90 16,-16 34,-28 55,-35 21,-8 42,-11 63,-11 20,1 39,5 57,12 18,7 32,17 42,29 7,10 12,23 13,40 1,17 1,36 -1,56 -7,110 -27,217 -61,322 -33,104 -75,203 -126,296 -17,31 -36,60 -58,87 -22,28 -47,53 -74,75 -35,29 -72,50 -113,63 -40,14 -80,20 -120,19 -40,-2 -79,-10 -115,-26 -36,-16 -67,-40 -92,-71 -8,-10 -14,-20 -20,-30 -5,-10 -11,-20 -16,-30 -9,-21 -12,-42 -8,-61 5,-20 14,-37 30,-50 16,-13 34,-20 53,-21 18,-1 37,6 54,21 15,13 31,24 48,31 17,6 36,8 58,3 28,-7 54,-18 78,-33 23,-15 43,-35 59,-62 14,-25 28,-50 41,-75 13,-25 24,-50 35,-77 18,-45 34,-89 50,-134 15,-45 31,-90 46,-135 0,-2 -2,-4 -5,-5zm863 267c2,-73 10,-144 23,-214 13,-69 27,-137 42,-203 -9,-11 -17,-22 -25,-30 -8,-9 -14,-18 -19,-29 -4,-13 -5,-27 -2,-41 4,-13 8,-27 15,-39 14,-32 31,-62 52,-88 21,-27 43,-53 67,-78 7,-10 15,-20 21,-28 7,-9 13,-19 18,-29 19,-34 39,-69 60,-103 21,-34 46,-66 74,-95 13,-14 26,-27 40,-40 15,-13 31,-22 49,-28 27,-8 49,-7 69,4 19,10 31,28 35,54 0,3 0,5 1,7 0,3 1,5 1,7 31,-9 61,-18 89,-27 29,-9 59,-16 90,-23 32,-9 65,-14 99,-15 34,-2 68,2 101,10 57,13 97,40 120,81 24,41 25,88 5,141 -10,26 -23,51 -39,74 -17,23 -36,44 -57,64 -23,21 -46,42 -70,63 -25,20 -49,41 -72,62 -5,4 -10,8 -15,13 -5,4 -10,9 -17,13 15,8 28,15 39,22 34,19 65,42 91,67 26,26 45,58 58,96 12,37 16,73 12,108 -4,35 -15,70 -33,104 -25,48 -57,91 -96,128 -39,37 -82,70 -130,98 -57,36 -117,64 -179,84 -62,21 -127,35 -195,42 -44,5 -87,7 -128,7 -42,0 -84,-5 -126,-15 -35,-9 -66,-22 -95,-38 -28,-16 -54,-37 -78,-62 -20,-22 -28,-46 -24,-72 4,-22 16,-38 35,-50 18,-12 39,-16 62,-11 5,2 10,3 15,5 5,1 10,2 17,4zm246 -281c-11,26 -21,55 -30,87 -10,32 -18,63 -25,93 -7,30 -12,58 -15,83 -3,26 -4,45 -2,57 10,-3 20,-5 31,-6 10,-2 20,-4 30,-7 50,-10 97,-23 143,-39 46,-17 91,-35 136,-55 27,-13 53,-28 77,-45 24,-17 46,-37 65,-59 18,-17 32,-38 44,-62 16,-34 8,-59 -24,-76 -40,-20 -79,-33 -118,-41 -40,-7 -81,1 -125,25 -29,15 -59,29 -89,40 -30,11 -63,13 -98,5zm487 -561c-57,12 -112,29 -164,50 -51,22 -102,47 -151,76 -15,8 -25,19 -30,33 -8,21 -15,42 -24,63 -8,21 -16,43 -23,64 -2,3 -3,7 -3,11 0,4 -1,9 -3,13 38,-3 79,-15 125,-35 45,-21 89,-44 131,-70 43,-27 81,-54 116,-83 35,-28 61,-53 78,-74 17,-22 22,-38 16,-48 -6,-11 -29,-11 -68,0zm399 430c23,-33 55,-55 95,-66 22,-6 42,-6 62,0 19,5 35,15 49,28 14,13 24,29 29,48 6,19 7,39 3,61 -2,13 -6,25 -11,36 -5,12 -11,22 -18,32 -13,21 -29,47 -47,80 -18,33 -36,67 -52,103 -16,37 -30,72 -42,105 -11,34 -17,62 -17,83 0,40 -18,69 -53,86 -37,15 -71,10 -103,-14 -30,-23 -47,-56 -52,-97 -7,-44 -6,-88 2,-133 12,-66 33,-128 61,-186 29,-58 60,-113 94,-166zm124 -243c2,-24 11,-47 27,-68 17,-22 38,-41 63,-58 15,-10 32,-13 50,-9 19,4 35,12 48,24 13,13 23,28 28,47 5,19 3,37 -5,56 -7,14 -15,29 -24,43 -9,15 -18,29 -28,42 -13,18 -29,30 -48,35 -18,6 -36,5 -54,-2 -39,-15 -58,-52 -57,-110zm513 244c18,-6 32,-11 43,-15 64,-18 117,-2 158,49 10,15 21,28 32,40 12,12 27,22 45,30 12,5 21,13 27,24 6,12 8,24 7,36 -4,27 -21,43 -51,47 -22,5 -42,6 -58,3 -17,-3 -32,-8 -47,-16 -15,-8 -29,-17 -43,-27 -14,-11 -31,-22 -49,-33 -18,-12 -37,-15 -58,-7 -20,8 -39,20 -57,38 -18,18 -35,38 -49,61 -14,22 -24,41 -29,58 -9,33 -17,69 -23,110 -6,40 -14,76 -25,108 -8,19 -17,36 -30,50 -12,14 -30,24 -53,31 -20,5 -39,6 -59,1 -19,-4 -36,-13 -51,-24 -15,-12 -27,-27 -36,-44 -10,-17 -14,-35 -13,-55 1,-8 2,-16 4,-24 1,-7 3,-15 5,-23 23,-78 50,-155 78,-231 29,-76 60,-152 93,-227 5,-10 10,-20 17,-29 7,-9 14,-17 23,-24 16,-14 34,-23 54,-26 20,-3 39,-2 57,4 19,6 36,17 51,31 15,15 26,32 32,52 1,5 2,10 3,14 0,5 1,11 2,18zm622 -368c15,-24 27,-44 36,-58 9,-14 18,-27 26,-39 8,-12 18,-24 29,-36 12,-13 27,-29 46,-50 18,-20 36,-37 55,-51 39,-24 74,-24 107,-1 20,13 31,31 34,52 2,22 0,44 -6,68 -6,23 -13,46 -23,68 -10,22 -17,41 -21,56 9,1 17,1 24,2 7,0 14,0 21,0 60,2 120,3 180,4 60,0 120,1 181,2 23,1 47,1 70,-1 22,-1 46,-2 69,-3 10,0 19,0 27,-1 9,0 17,0 26,1 11,2 19,6 26,13 7,7 10,16 9,26 3,23 -6,40 -27,51 -8,3 -15,5 -22,8 -7,2 -15,3 -22,3 -53,5 -105,9 -157,13 -52,4 -104,7 -156,9 -50,3 -100,5 -149,6 -50,2 -99,4 -150,6 -13,0 -26,2 -41,5 -27,53 -55,108 -83,166 -28,57 -51,114 -71,171 -20,57 -33,112 -41,167 -7,54 -4,104 10,151 28,43 28,84 0,122 -15,20 -32,34 -52,42 -20,8 -40,11 -60,8 -19,-2 -38,-9 -56,-20 -18,-11 -32,-25 -43,-44 -32,-55 -49,-116 -50,-183 0,-66 7,-133 23,-201 16,-67 37,-133 64,-196 26,-64 52,-121 75,-172 -21,-2 -41,-3 -61,-4 -21,0 -41,-1 -61,-3 -32,-2 -64,-4 -96,-7 -33,-3 -66,-6 -99,-8 -7,-1 -14,-3 -21,-6 -7,-3 -13,-6 -20,-11 -11,-8 -18,-18 -22,-29 -4,-11 -5,-22 -3,-34 2,-12 7,-23 15,-33 8,-11 18,-19 31,-24 22,-11 45,-15 68,-13 60,1 119,2 178,4 59,1 120,3 183,4z"/>
    <path class="fil1" d="M7753 990c37,-30 73,-59 108,-86 35,-28 74,-50 117,-69 42,-17 77,-23 104,-18 27,5 47,16 60,33 13,18 21,39 21,65 1,25 -3,50 -12,73 -5,14 -12,34 -19,60 -7,25 -14,52 -21,81 -6,28 -12,55 -17,81 -5,26 -9,47 -11,63 -3,13 -6,25 -10,37 -4,13 -8,24 -14,35 -9,21 -22,37 -39,48 -17,10 -35,15 -55,14 -31,-3 -56,-11 -75,-25 -19,-14 -33,-32 -41,-54 -9,-21 -14,-45 -14,-72 0,-26 2,-53 6,-79 5,-26 11,-51 19,-75 9,-24 17,-45 26,-62 5,-10 9,-19 11,-28 3,-10 4,-17 2,-21 -2,-4 -7,-5 -14,-2 -7,3 -19,12 -36,27 -15,16 -32,34 -51,56 -19,21 -36,45 -52,70 -16,26 -30,53 -41,81 -12,28 -18,56 -20,84 -3,48 -24,80 -63,93 -31,11 -57,13 -76,6 -20,-8 -35,-20 -46,-38 -11,-18 -19,-39 -23,-65 -4,-26 -6,-52 -5,-79 0,-27 1,-52 4,-76 2,-24 4,-43 6,-58 15,-140 46,-267 90,-380 45,-112 96,-212 154,-300 12,-18 26,-37 43,-55 17,-19 36,-34 56,-46 20,-11 41,-17 62,-19 22,-1 43,6 64,21 20,14 33,31 39,50 6,20 7,40 4,61 -3,20 -10,40 -19,59 -10,20 -20,37 -30,51 -26,41 -49,80 -68,117 -19,36 -36,73 -50,109 -14,36 -27,73 -39,111 -11,38 -23,78 -35,121zm901 248c-17,16 -33,30 -47,43 -14,13 -29,25 -44,36 -13,10 -27,20 -41,31 -14,11 -29,20 -43,28 -31,16 -62,25 -91,26 -30,1 -57,-5 -82,-17 -25,-12 -46,-30 -64,-54 -18,-24 -30,-53 -37,-87 -7,-30 -9,-60 -6,-90 3,-30 9,-59 18,-88 35,-105 94,-193 178,-262 50,-43 104,-70 161,-81 56,-11 116,-3 179,23 1,2 5,3 11,3 12,-28 23,-54 32,-79 9,-25 19,-50 29,-74 11,-24 22,-48 35,-71 13,-24 29,-48 47,-72 9,-12 18,-23 27,-33 9,-10 20,-20 30,-30 16,-13 33,-20 51,-22 17,-1 34,3 50,13 14,10 25,24 30,42 6,17 6,36 -2,56 -26,78 -55,156 -85,233 -31,77 -59,153 -85,230 -25,77 -46,154 -61,232 -16,78 -21,156 -17,236 0,12 1,23 3,32 2,10 3,19 4,28 1,9 0,18 -3,26 -4,7 -10,15 -19,22 -12,9 -25,14 -40,15 -15,0 -30,-5 -45,-15 -21,-15 -36,-35 -47,-58 -10,-23 -17,-48 -21,-73 -4,-26 -6,-52 -5,-78 0,-26 0,-50 0,-71zm-182 -209c-14,13 -26,28 -37,44 -11,15 -20,31 -28,46 -8,16 -14,31 -18,45 -4,14 -5,26 -3,37 0,11 7,16 21,15 14,-2 32,-8 53,-19 21,-11 43,-26 67,-44 24,-19 45,-41 64,-65 34,-45 52,-79 55,-100 3,-22 -3,-35 -19,-38 -16,-2 -38,3 -67,17 -28,14 -58,34 -88,62zm885 229c-8,7 -14,14 -20,21 -6,7 -13,14 -20,21 -23,24 -47,46 -72,65 -25,20 -55,33 -90,41 -65,13 -118,-5 -161,-56 -15,-19 -27,-38 -35,-59 -8,-20 -13,-42 -15,-66 -8,-183 61,-329 207,-438 41,-31 85,-50 131,-57 46,-6 93,1 140,23 15,6 29,14 41,24 13,10 27,19 40,28 8,-5 16,-11 24,-18 8,-6 16,-12 26,-16 38,-25 73,-24 105,1 31,26 40,58 28,98 -9,24 -19,48 -28,72 -10,24 -19,49 -27,74l-78 218c-7,23 -6,45 1,66 15,39 7,69 -22,91 -15,11 -30,17 -47,18 -17,0 -34,-5 -50,-16 -16,-10 -29,-22 -39,-37 -10,-14 -18,-31 -24,-49 -2,-7 -4,-15 -7,-23 -2,-7 -5,-16 -8,-26zm-90 -91c21,-18 41,-40 61,-66 21,-25 38,-50 50,-74 13,-25 20,-46 20,-64 1,-18 -9,-30 -29,-34 -24,-5 -46,-4 -65,3 -20,7 -39,18 -57,34 -33,30 -59,65 -77,107 -16,35 -26,66 -30,93 -5,27 -3,47 4,59 7,12 21,14 41,6 20,-8 48,-29 82,-64zm940 -189c-14,15 -28,30 -42,46 -14,16 -29,32 -43,49 -19,21 -38,42 -57,65 -19,22 -38,44 -57,65 -13,13 -25,24 -38,35 -12,11 -25,21 -39,31 -38,25 -77,36 -116,31 -39,-4 -71,-24 -98,-57 -30,-42 -45,-89 -44,-140 1,-53 9,-105 25,-155 16,-49 39,-97 71,-142 17,-22 37,-43 62,-63 18,-15 39,-23 62,-24 24,-1 43,4 59,16 19,13 31,29 36,48 5,19 4,41 -3,65 -8,27 -15,55 -23,83 -8,27 -14,57 -20,88 -8,32 -10,52 -5,61 4,9 13,9 26,1 14,-8 31,-24 52,-46 21,-21 43,-47 68,-75 24,-28 49,-58 75,-90 26,-31 52,-61 76,-90 16,-16 34,-28 55,-35 21,-8 42,-11 62,-11 21,1 40,5 58,12 18,7 32,17 42,29 7,10 12,23 13,40 1,17 1,36 -1,56 -7,110 -27,217 -61,322 -33,104 -75,203 -127,296 -16,31 -35,60 -57,87 -22,28 -47,53 -74,75 -35,29 -73,50 -113,63 -40,14 -80,20 -120,19 -41,-2 -79,-10 -115,-26 -36,-16 -67,-40 -93,-71 -7,-10 -13,-20 -19,-30 -5,-10 -11,-20 -16,-30 -9,-21 -12,-42 -8,-61 4,-20 14,-37 30,-50 16,-13 34,-20 53,-21 18,-1 36,6 54,21 14,13 30,24 48,31 17,6 36,8 57,3 29,-7 55,-18 78,-33 24,-15 44,-35 59,-62 15,-25 29,-50 42,-75 12,-25 24,-50 35,-77 18,-45 34,-89 50,-134 15,-45 31,-90 46,-135 -1,-2 -2,-4 -5,-5zm1097 8c-2,6 -4,10 -6,13 -1,3 -3,7 -4,10 -3,13 -8,33 -13,59 -6,26 -12,55 -18,87 -7,33 -14,67 -21,101 -7,35 -15,67 -22,98 -8,30 -16,56 -24,77 -9,22 -16,36 -24,42 -14,10 -30,16 -48,17 -18,1 -35,-3 -51,-13 -21,-12 -35,-30 -41,-55 -7,-24 -11,-51 -11,-79 0,-28 2,-55 7,-83 4,-27 7,-50 10,-68 13,-74 26,-146 40,-216 13,-70 30,-138 48,-203 19,-65 40,-129 65,-191 24,-61 53,-122 87,-180 11,-17 22,-34 33,-51 12,-16 24,-32 37,-48 23,-32 54,-46 93,-44 26,2 47,10 64,24 17,13 27,33 32,59 3,16 4,33 5,49 0,16 0,33 0,51 -1,44 -3,87 -6,129 -2,43 -4,86 -6,130 -4,71 2,140 18,208 15,67 37,133 63,199 0,2 1,4 3,5 2,1 3,4 5,9 2,-6 4,-11 6,-16 2,-5 3,-10 5,-14 27,-115 61,-226 104,-334 42,-107 92,-213 149,-315 15,-27 32,-53 50,-78 17,-25 38,-48 62,-69 13,-12 27,-22 42,-31 15,-8 32,-13 50,-14 17,-1 33,2 49,8 15,7 27,16 37,28 9,12 16,25 19,41 3,15 2,32 -4,49 -8,26 -17,51 -28,76 -10,24 -22,49 -36,72 -68,117 -124,240 -169,367 -46,128 -88,256 -126,386 -5,19 -10,39 -12,59 -1,7 -1,13 1,19 2,7 4,13 6,20 11,23 17,44 17,61 -1,18 -8,34 -22,50 -12,14 -30,23 -52,27 -23,4 -44,1 -65,-8 -52,-18 -97,-47 -138,-87 -40,-39 -76,-83 -107,-132 -32,-49 -60,-100 -85,-153 -25,-53 -48,-102 -68,-148zm1102 272c-7,7 -14,14 -19,21 -6,7 -13,14 -20,21 -23,24 -47,46 -72,65 -25,20 -55,33 -90,41 -65,13 -119,-5 -161,-56 -15,-19 -27,-38 -35,-59 -9,-20 -14,-42 -15,-66 -9,-183 60,-329 207,-438 41,-31 85,-50 131,-57 46,-6 93,1 140,23 15,6 29,14 41,24 13,10 26,19 40,28 8,-5 16,-11 24,-18 8,-6 16,-12 26,-16 38,-25 73,-24 105,1 31,26 40,58 28,98 -10,24 -19,48 -29,72 -9,24 -18,49 -26,74l-78 218c-7,23 -6,45 1,66 15,39 7,69 -22,91 -15,11 -30,17 -47,18 -17,0 -34,-5 -50,-16 -16,-10 -29,-22 -39,-37 -10,-14 -18,-31 -25,-49 -1,-7 -3,-15 -6,-23 -2,-7 -5,-16 -9,-26zm-89 -91c20,-18 41,-40 61,-66 21,-25 38,-50 50,-74 13,-25 20,-46 20,-64 1,-18 -9,-30 -29,-34 -24,-5 -46,-4 -65,3 -20,7 -39,18 -57,34 -33,30 -59,65 -77,107 -16,35 -26,66 -30,93 -5,27 -3,47 4,59 7,12 21,14 41,6 20,-8 48,-29 82,-64zm760 -333c18,-6 33,-11 44,-15 64,-18 116,-2 158,49 10,15 20,28 32,40 11,12 26,22 44,30 12,5 21,13 27,24 6,12 9,24 8,36 -5,27 -22,43 -51,47 -23,5 -43,6 -59,3 -16,-3 -32,-8 -47,-16 -14,-8 -29,-17 -43,-27 -14,-11 -30,-22 -49,-33 -18,-12 -37,-15 -57,-7 -20,8 -39,20 -58,38 -18,18 -34,38 -48,61 -15,22 -24,41 -30,58 -9,33 -17,69 -23,110 -5,40 -14,76 -25,108 -7,19 -17,36 -29,50 -13,14 -30,24 -53,31 -20,5 -40,6 -59,1 -19,-4 -36,-13 -52,-24 -15,-12 -27,-27 -36,-44 -9,-17 -13,-35 -12,-55 1,-8 2,-16 3,-24 2,-7 3,-15 5,-23 24,-78 50,-155 79,-231 29,-76 59,-152 92,-227 5,-10 11,-20 18,-29 6,-9 14,-17 22,-24 17,-14 35,-23 54,-26 20,-3 39,-2 58,4 19,6 36,17 51,31 15,15 25,32 32,52 1,5 1,10 2,14 0,5 1,11 2,18zm706 0c19,-6 33,-11 44,-15 64,-18 117,-2 158,49 10,15 21,28 32,40 12,12 26,22 45,30 12,5 20,13 26,24 6,12 9,24 8,36 -5,27 -22,43 -51,47 -23,5 -42,6 -59,3 -16,-3 -32,-8 -46,-16 -15,-8 -29,-17 -44,-27 -14,-11 -30,-22 -48,-33 -19,-12 -38,-15 -58,-7 -20,8 -39,20 -57,38 -19,18 -35,38 -49,61 -14,22 -24,41 -30,58 -9,33 -16,69 -22,110 -6,40 -15,76 -26,108 -7,19 -17,36 -29,50 -12,14 -30,24 -53,31 -20,5 -40,6 -59,1 -19,-4 -36,-13 -51,-24 -15,-12 -28,-27 -37,-44 -9,-17 -13,-35 -12,-55 1,-8 2,-16 3,-24 2,-7 3,-15 5,-23 24,-78 50,-155 79,-231 29,-76 60,-152 93,-227 4,-10 10,-20 17,-29 7,-9 14,-17 22,-24 17,-14 35,-23 55,-26 19,-3 38,-2 57,4 19,6 36,17 51,31 15,15 26,32 32,52 1,5 2,10 2,14 1,5 1,11 2,18zm761 424c-7,7 -14,14 -20,21 -5,7 -12,14 -19,21 -23,24 -47,46 -72,65 -26,20 -55,33 -90,41 -65,13 -119,-5 -161,-56 -15,-19 -27,-38 -35,-59 -9,-20 -14,-42 -15,-66 -9,-183 60,-329 207,-438 41,-31 84,-50 131,-57 46,-6 93,1 140,23 15,6 29,14 41,24 13,10 26,19 40,28 8,-5 16,-11 24,-18 8,-6 16,-12 25,-16 39,-25 74,-24 106,1 31,26 40,58 27,98 -9,24 -18,48 -28,72 -9,24 -18,49 -26,74l-79 218c-6,23 -5,45 2,66 14,39 7,69 -22,91 -15,11 -31,17 -47,18 -17,0 -34,-5 -50,-16 -16,-10 -29,-22 -39,-37 -10,-14 -18,-31 -25,-49 -1,-7 -3,-15 -6,-23 -2,-7 -5,-16 -9,-26zm-89 -91c20,-18 41,-40 61,-66 21,-25 37,-50 50,-74 13,-25 20,-46 20,-64 1,-18 -9,-30 -29,-34 -24,-5 -46,-4 -65,3 -20,7 -39,18 -57,34 -33,30 -59,65 -77,107 -16,35 -26,66 -30,93 -5,27 -4,47 4,59 7,12 21,14 41,6 20,-8 47,-29 82,-64z"/>
   </g>
  </g>
 </g>
</svg>
